name ./resultDataOpenSim/trcMotMarkerGrf/sub09/grf-15-04.mot
datacolumns 19
datarows 22
range 1.45200000 1.53600000
endheader

                time	     ground_force_vx	     ground_force_vy	     ground_force_vz	     ground_force_px	     ground_force_py	     ground_force_pz	   l_ground_force_vx	   l_ground_force_vy	   l_ground_force_vz	   l_ground_force_px	   l_ground_force_py	   l_ground_force_pz	     ground_torque_x	     ground_torque_y	     ground_torque_z	   l_ground_torque_x	   l_ground_torque_y	   l_ground_torque_z	
          1.45200000	          1.59276028	        501.04672230	        -19.68121168	          0.99514279	          0.00000000	          0.01173430	          0.00000000	          0.00000000	          0.00000000	          0.00000000	          0.00000000	          0.00000000	          0.00000000	         -2.64590703	          0.00000000	          0.00000000	          0.00000000	          0.00000000	
          1.45600000	          3.80064813	        489.46074122	        -20.69494071	          0.99526320	          0.00000000	          0.01212079	          0.00000000	          0.00000000	          0.00000000	          0.00000000	          0.00000000	          0.00000000	          0.00000000	         -2.62646732	          0.00000000	          0.00000000	          0.00000000	          0.00000000	
          1.46000000	          6.48666305	        478.38142020	        -19.13183959	          0.99526786	          0.00000000	          0.01240354	          0.00000000	          0.00000000	          0.00000000	          0.00000000	          0.00000000	          0.00000000	          0.00000000	         -2.48688512	          0.00000000	          0.00000000	          0.00000000	          0.00000000	
          1.46400000	          9.12388844	        467.92838004	        -15.34635330	          0.99524078	          0.00000000	          0.01257773	          0.00000000	          0.00000000	          0.00000000	          0.00000000	          0.00000000	          0.00000000	          0.00000000	         -2.23855305	          0.00000000	          0.00000000	          0.00000000	          0.00000000	
          1.46800000	         11.16888373	        458.21383479	        -10.06752120	          0.99527903	          0.00000000	          0.01265293	          0.00000000	          0.00000000	          0.00000000	          0.00000000	          0.00000000	          0.00000000	          0.00000000	         -1.91136165	          0.00000000	          0.00000000	          0.00000000	          0.00000000	
          1.47200000	         12.23890443	        449.29058381	         -4.26575044	          0.99546155	          0.00000000	          0.01265068	          0.00000000	          0.00000000	          0.00000000	          0.00000000	          0.00000000	          0.00000000	          0.00000000	         -1.54992126	          0.00000000	          0.00000000	          0.00000000	          0.00000000	
          1.47600000	         12.22864627	        441.14087870	          1.02001247	          0.99582473	          0.00000000	          0.01260731	          0.00000000	          0.00000000	          0.00000000	          0.00000000	          0.00000000	          0.00000000	          0.00000000	         -1.20612120	          0.00000000	          0.00000000	          0.00000000	          0.00000000	
          1.48000000	         11.33473439	        433.70876060	          4.86542021	          0.99634175	          0.00000000	          0.01256640	          0.00000000	          0.00000000	          0.00000000	          0.00000000	          0.00000000	          0.00000000	          0.00000000	         -0.92890588	          0.00000000	          0.00000000	          0.00000000	          0.00000000	
          1.48400000	          9.99507883	        426.93749562	          6.62815045	          0.99696708	          0.00000000	          0.01256564	          0.00000000	          0.00000000	          0.00000000	          0.00000000	          0.00000000	          0.00000000	          0.00000000	         -0.75388026	          0.00000000	          0.00000000	          0.00000000	          0.00000000	
          1.48800000	          8.76640458	        420.77754239	          6.06341860	          0.99760875	          0.00000000	          0.01262940	          0.00000000	          0.00000000	          0.00000000	          0.00000000	          0.00000000	          0.00000000	          0.00000000	         -0.69604982	          0.00000000	          0.00000000	          0.00000000	          0.00000000	
          1.49200000	          8.17293341	        415.17812099	          3.35921666	          0.99818946	          0.00000000	          0.01276144	          0.00000000	          0.00000000	          0.00000000	          0.00000000	          0.00000000	          0.00000000	          0.00000000	         -0.74794850	          0.00000000	          0.00000000	          0.00000000	          0.00000000	
          1.49600000	          8.56420825	        410.10144486	         -0.91413971	          0.99866419	          0.00000000	          0.01294195	          0.00000000	          0.00000000	          0.00000000	          0.00000000	          0.00000000	          0.00000000	          0.00000000	         -0.88313380	          0.00000000	          0.00000000	          0.00000000	          0.00000000	
          1.50000000	         10.02084658	        405.54957582	         -5.92609464	          0.99898823	          0.00000000	          0.01313559	          0.00000000	          0.00000000	          0.00000000	          0.00000000	          0.00000000	          0.00000000	          0.00000000	         -1.06294651	          0.00000000	          0.00000000	          0.00000000	          0.00000000	
          1.50400000	         12.33572198	        401.55773660	        -10.74797542	          0.99919032	          0.00000000	          0.01329230	          0.00000000	          0.00000000	          0.00000000	          0.00000000	          0.00000000	          0.00000000	          0.00000000	         -1.24385026	          0.00000000	          0.00000000	          0.00000000	          0.00000000	
          1.50800000	         15.07785967	        398.14882124	        -14.51761046	          0.99934347	          0.00000000	          0.01336944	          0.00000000	          0.00000000	          0.00000000	          0.00000000	          0.00000000	          0.00000000	          0.00000000	         -1.38380332	          0.00000000	          0.00000000	          0.00000000	          0.00000000	
          1.51200000	         17.71448278	        395.29754750	        -16.58157994	          0.99953381	          0.00000000	          0.01333283	          0.00000000	          0.00000000	          0.00000000	          0.00000000	          0.00000000	          0.00000000	          0.00000000	         -1.44777024	          0.00000000	          0.00000000	          0.00000000	          0.00000000	
          1.51600000	         19.74470165	        392.94894856	        -16.59708649	          0.99984471	          0.00000000	          0.01315665	          0.00000000	          0.00000000	          0.00000000	          0.00000000	          0.00000000	          0.00000000	          0.00000000	         -1.41304135	          0.00000000	          0.00000000	          0.00000000	          0.00000000	
          1.52000000	         20.81716313	        391.05774871	        -14.58047218	          1.00032930	          0.00000000	          0.01282430	          0.00000000	          0.00000000	          0.00000000	          0.00000000	          0.00000000	          0.00000000	          0.00000000	         -1.27403588	          0.00000000	          0.00000000	          0.00000000	          0.00000000	
          1.52400000	         20.82274841	        389.59309136	        -10.90519096	          1.00101448	          0.00000000	          0.01234613	          0.00000000	          0.00000000	          0.00000000	          0.00000000	          0.00000000	          0.00000000	          0.00000000	         -1.04486040	          0.00000000	          0.00000000	          0.00000000	          0.00000000	
          1.52800000	         19.94118555	        388.51599424	         -6.24171059	          1.00187672	          0.00000000	          0.01175761	          0.00000000	          0.00000000	          0.00000000	          0.00000000	          0.00000000	          0.00000000	          0.00000000	         -0.75765494	          0.00000000	          0.00000000	          0.00000000	          0.00000000	
          1.53200000	         18.60345645	        387.75935596	         -1.42666913	          1.00284809	          0.00000000	          0.01110915	          0.00000000	          0.00000000	          0.00000000	          0.00000000	          0.00000000	          0.00000000	          0.00000000	         -0.45618181	          0.00000000	          0.00000000	          0.00000000	          0.00000000	
          1.53600000	         17.36409397	        387.23612467	          2.70649001	          1.00383427	          0.00000000	          0.01045006	          0.00000000	          0.00000000	          0.00000000	          0.00000000	          0.00000000	          0.00000000	          0.00000000	         -0.18627557	          0.00000000	          0.00000000	          0.00000000	          0.00000000	
